<mxfile host="app.diagrams.net" modified="2022-11-10T06:15:30.504Z" agent="5.0 (Windows NT 10.0; Win64; x64) AppleWebKit/537.36 (KHTML, like Gecko) Chrome/107.0.0.0 Safari/537.36 Edg/107.0.1418.35" etag="lYLs1l36DiunmkSxF2LP" version="20.5.3" type="github">
  <diagram id="Y9l8I7I8Wr5Jqgsq6RLC" name="PÃ¡gina-1">
    <mxGraphModel dx="2485" dy="2354" grid="1" gridSize="10" guides="1" tooltips="1" connect="1" arrows="1" fold="1" page="1" pageScale="1" pageWidth="827" pageHeight="1169" math="0" shadow="0">
      <root>
        <mxCell id="0" />
        <mxCell id="1" parent="0" />
        <mxCell id="BLpywXTQy7QZtZPaqTNP-7" value="&lt;&lt;boundary&gt;&gt;&#xa;TelaInicial&#xa;" style="swimlane;fontStyle=1;align=center;verticalAlign=top;childLayout=stackLayout;horizontal=1;startSize=40;horizontalStack=0;resizeParent=1;resizeParentMax=0;resizeLast=0;collapsible=1;marginBottom=0;" parent="1" vertex="1">
          <mxGeometry x="60" y="-986" width="160" height="74" as="geometry" />
        </mxCell>
        <mxCell id="BLpywXTQy7QZtZPaqTNP-8" value="- btnOrcamento: button" style="text;strokeColor=none;fillColor=none;align=left;verticalAlign=top;spacingLeft=4;spacingRight=4;overflow=hidden;rotatable=0;points=[[0,0.5],[1,0.5]];portConstraint=eastwest;" parent="BLpywXTQy7QZtZPaqTNP-7" vertex="1">
          <mxGeometry y="40" width="160" height="26" as="geometry" />
        </mxCell>
        <mxCell id="BLpywXTQy7QZtZPaqTNP-9" value="" style="line;strokeWidth=1;fillColor=none;align=left;verticalAlign=middle;spacingTop=-1;spacingLeft=3;spacingRight=3;rotatable=0;labelPosition=right;points=[];portConstraint=eastwest;strokeColor=inherit;" parent="BLpywXTQy7QZtZPaqTNP-7" vertex="1">
          <mxGeometry y="66" width="160" height="8" as="geometry" />
        </mxCell>
        <mxCell id="BLpywXTQy7QZtZPaqTNP-11" value="Classname" style="swimlane;fontStyle=1;align=center;verticalAlign=top;childLayout=stackLayout;horizontal=1;startSize=26;horizontalStack=0;resizeParent=1;resizeParentMax=0;resizeLast=0;collapsible=1;marginBottom=0;" parent="1" vertex="1">
          <mxGeometry x="370" y="230" width="160" height="86" as="geometry" />
        </mxCell>
        <mxCell id="BLpywXTQy7QZtZPaqTNP-12" value="+ field: type" style="text;strokeColor=none;fillColor=none;align=left;verticalAlign=top;spacingLeft=4;spacingRight=4;overflow=hidden;rotatable=0;points=[[0,0.5],[1,0.5]];portConstraint=eastwest;" parent="BLpywXTQy7QZtZPaqTNP-11" vertex="1">
          <mxGeometry y="26" width="160" height="26" as="geometry" />
        </mxCell>
        <mxCell id="BLpywXTQy7QZtZPaqTNP-13" value="" style="line;strokeWidth=1;fillColor=none;align=left;verticalAlign=middle;spacingTop=-1;spacingLeft=3;spacingRight=3;rotatable=0;labelPosition=right;points=[];portConstraint=eastwest;strokeColor=inherit;" parent="BLpywXTQy7QZtZPaqTNP-11" vertex="1">
          <mxGeometry y="52" width="160" height="8" as="geometry" />
        </mxCell>
        <mxCell id="BLpywXTQy7QZtZPaqTNP-14" value="+ method(type): type" style="text;strokeColor=none;fillColor=none;align=left;verticalAlign=top;spacingLeft=4;spacingRight=4;overflow=hidden;rotatable=0;points=[[0,0.5],[1,0.5]];portConstraint=eastwest;" parent="BLpywXTQy7QZtZPaqTNP-11" vertex="1">
          <mxGeometry y="60" width="160" height="26" as="geometry" />
        </mxCell>
        <mxCell id="enPklc09AmODqLy-inbp-10" style="edgeStyle=orthogonalEdgeStyle;rounded=0;orthogonalLoop=1;jettySize=auto;html=1;entryX=1;entryY=0.5;entryDx=0;entryDy=0;dashed=1;" edge="1" parent="1" source="YAAx3hCROQPIuZlO7VVM-3" target="BLpywXTQy7QZtZPaqTNP-7">
          <mxGeometry relative="1" as="geometry" />
        </mxCell>
        <mxCell id="enPklc09AmODqLy-inbp-11" style="edgeStyle=orthogonalEdgeStyle;rounded=0;orthogonalLoop=1;jettySize=auto;html=1;dashed=1;" edge="1" parent="1" source="YAAx3hCROQPIuZlO7VVM-3" target="YAAx3hCROQPIuZlO7VVM-26">
          <mxGeometry relative="1" as="geometry" />
        </mxCell>
        <mxCell id="YAAx3hCROQPIuZlO7VVM-3" value="&lt;&lt;interface&gt;&gt;&#xa;FormOrc" style="swimlane;fontStyle=1;align=center;verticalAlign=top;childLayout=stackLayout;horizontal=1;startSize=40;horizontalStack=0;resizeParent=1;resizeParentMax=0;resizeLast=0;collapsible=1;marginBottom=0;" parent="1" vertex="1">
          <mxGeometry x="430" y="-1090" width="176" height="282" as="geometry" />
        </mxCell>
        <mxCell id="YAAx3hCROQPIuZlO7VVM-4" value="- txtdestino: JTextField" style="text;strokeColor=none;fillColor=none;align=left;verticalAlign=top;spacingLeft=4;spacingRight=4;overflow=hidden;rotatable=0;points=[[0,0.5],[1,0.5]];portConstraint=eastwest;" parent="YAAx3hCROQPIuZlO7VVM-3" vertex="1">
          <mxGeometry y="40" width="176" height="26" as="geometry" />
        </mxCell>
        <mxCell id="YAAx3hCROQPIuZlO7VVM-7" value="- txtpassagem: JTextField" style="text;strokeColor=none;fillColor=none;align=left;verticalAlign=top;spacingLeft=4;spacingRight=4;overflow=hidden;rotatable=0;points=[[0,0.5],[1,0.5]];portConstraint=eastwest;" parent="YAAx3hCROQPIuZlO7VVM-3" vertex="1">
          <mxGeometry y="66" width="176" height="26" as="geometry" />
        </mxCell>
        <mxCell id="YAAx3hCROQPIuZlO7VVM-8" value="- txtpeso: JTextField" style="text;strokeColor=none;fillColor=none;align=left;verticalAlign=top;spacingLeft=4;spacingRight=4;overflow=hidden;rotatable=0;points=[[0,0.5],[1,0.5]];portConstraint=eastwest;" parent="YAAx3hCROQPIuZlO7VVM-3" vertex="1">
          <mxGeometry y="92" width="176" height="26" as="geometry" />
        </mxCell>
        <mxCell id="YAAx3hCROQPIuZlO7VVM-9" value="- btnConfirmar: button" style="text;strokeColor=none;fillColor=none;align=left;verticalAlign=top;spacingLeft=4;spacingRight=4;overflow=hidden;rotatable=0;points=[[0,0.5],[1,0.5]];portConstraint=eastwest;" parent="YAAx3hCROQPIuZlO7VVM-3" vertex="1">
          <mxGeometry y="118" width="176" height="26" as="geometry" />
        </mxCell>
        <mxCell id="YAAx3hCROQPIuZlO7VVM-15" value="- txtTotpassagem: JTextField" style="text;strokeColor=none;fillColor=none;align=left;verticalAlign=top;spacingLeft=4;spacingRight=4;overflow=hidden;rotatable=0;points=[[0,0.5],[1,0.5]];portConstraint=eastwest;" parent="YAAx3hCROQPIuZlO7VVM-3" vertex="1">
          <mxGeometry y="144" width="176" height="26" as="geometry" />
        </mxCell>
        <mxCell id="YAAx3hCROQPIuZlO7VVM-16" value="- txtTotcusto: JTextField" style="text;strokeColor=none;fillColor=none;align=left;verticalAlign=top;spacingLeft=4;spacingRight=4;overflow=hidden;rotatable=0;points=[[0,0.5],[1,0.5]];portConstraint=eastwest;" parent="YAAx3hCROQPIuZlO7VVM-3" vertex="1">
          <mxGeometry y="170" width="176" height="26" as="geometry" />
        </mxCell>
        <mxCell id="YAAx3hCROQPIuZlO7VVM-17" value="- txtTotal: JTextField" style="text;strokeColor=none;fillColor=none;align=left;verticalAlign=top;spacingLeft=4;spacingRight=4;overflow=hidden;rotatable=0;points=[[0,0.5],[1,0.5]];portConstraint=eastwest;" parent="YAAx3hCROQPIuZlO7VVM-3" vertex="1">
          <mxGeometry y="196" width="176" height="26" as="geometry" />
        </mxCell>
        <mxCell id="YAAx3hCROQPIuZlO7VVM-18" value="- btnConfirmar: button" style="text;strokeColor=none;fillColor=none;align=left;verticalAlign=top;spacingLeft=4;spacingRight=4;overflow=hidden;rotatable=0;points=[[0,0.5],[1,0.5]];portConstraint=eastwest;" parent="YAAx3hCROQPIuZlO7VVM-3" vertex="1">
          <mxGeometry y="222" width="176" height="26" as="geometry" />
        </mxCell>
        <mxCell id="YAAx3hCROQPIuZlO7VVM-20" value="- btnNegar: button" style="text;strokeColor=none;fillColor=none;align=left;verticalAlign=top;spacingLeft=4;spacingRight=4;overflow=hidden;rotatable=0;points=[[0,0.5],[1,0.5]];portConstraint=eastwest;" parent="YAAx3hCROQPIuZlO7VVM-3" vertex="1">
          <mxGeometry y="248" width="176" height="26" as="geometry" />
        </mxCell>
        <mxCell id="YAAx3hCROQPIuZlO7VVM-5" value="" style="line;strokeWidth=1;fillColor=none;align=left;verticalAlign=middle;spacingTop=-1;spacingLeft=3;spacingRight=3;rotatable=0;labelPosition=right;points=[];portConstraint=eastwest;strokeColor=inherit;" parent="YAAx3hCROQPIuZlO7VVM-3" vertex="1">
          <mxGeometry y="274" width="176" height="8" as="geometry" />
        </mxCell>
        <mxCell id="YAAx3hCROQPIuZlO7VVM-14" value="&lt;&lt;entity&gt;&gt;&#xa;Venda" style="swimlane;fontStyle=1;align=center;verticalAlign=top;childLayout=stackLayout;horizontal=1;startSize=40;horizontalStack=0;resizeParent=1;resizeParentMax=0;resizeLast=0;collapsible=1;marginBottom=0;" parent="1" vertex="1">
          <mxGeometry x="60" y="-726" width="160" height="204" as="geometry" />
        </mxCell>
        <mxCell id="enPklc09AmODqLy-inbp-7" value="- destino: String" style="text;strokeColor=none;fillColor=none;align=left;verticalAlign=top;spacingLeft=4;spacingRight=4;overflow=hidden;rotatable=0;points=[[0,0.5],[1,0.5]];portConstraint=eastwest;" vertex="1" parent="YAAx3hCROQPIuZlO7VVM-14">
          <mxGeometry y="40" width="160" height="26" as="geometry" />
        </mxCell>
        <mxCell id="enPklc09AmODqLy-inbp-8" value="- npassagem: int" style="text;strokeColor=none;fillColor=none;align=left;verticalAlign=top;spacingLeft=4;spacingRight=4;overflow=hidden;rotatable=0;points=[[0,0.5],[1,0.5]];portConstraint=eastwest;" vertex="1" parent="YAAx3hCROQPIuZlO7VVM-14">
          <mxGeometry y="66" width="160" height="26" as="geometry" />
        </mxCell>
        <mxCell id="enPklc09AmODqLy-inbp-9" value="- peso: double" style="text;strokeColor=none;fillColor=none;align=left;verticalAlign=top;spacingLeft=4;spacingRight=4;overflow=hidden;rotatable=0;points=[[0,0.5],[1,0.5]];portConstraint=eastwest;" vertex="1" parent="YAAx3hCROQPIuZlO7VVM-14">
          <mxGeometry y="92" width="160" height="26" as="geometry" />
        </mxCell>
        <mxCell id="YAAx3hCROQPIuZlO7VVM-27" value="- totPassagem: double" style="text;strokeColor=none;fillColor=none;align=left;verticalAlign=top;spacingLeft=4;spacingRight=4;overflow=hidden;rotatable=0;points=[[0,0.5],[1,0.5]];portConstraint=eastwest;" parent="YAAx3hCROQPIuZlO7VVM-14" vertex="1">
          <mxGeometry y="118" width="160" height="26" as="geometry" />
        </mxCell>
        <mxCell id="YAAx3hCROQPIuZlO7VVM-28" value="- totCusto: double" style="text;strokeColor=none;fillColor=none;align=left;verticalAlign=top;spacingLeft=4;spacingRight=4;overflow=hidden;rotatable=0;points=[[0,0.5],[1,0.5]];portConstraint=eastwest;" parent="YAAx3hCROQPIuZlO7VVM-14" vertex="1">
          <mxGeometry y="144" width="160" height="26" as="geometry" />
        </mxCell>
        <mxCell id="YAAx3hCROQPIuZlO7VVM-29" value="- total: double" style="text;strokeColor=none;fillColor=none;align=left;verticalAlign=top;spacingLeft=4;spacingRight=4;overflow=hidden;rotatable=0;points=[[0,0.5],[1,0.5]];portConstraint=eastwest;" parent="YAAx3hCROQPIuZlO7VVM-14" vertex="1">
          <mxGeometry y="170" width="160" height="26" as="geometry" />
        </mxCell>
        <mxCell id="YAAx3hCROQPIuZlO7VVM-19" value="" style="line;strokeWidth=1;fillColor=none;align=left;verticalAlign=middle;spacingTop=-1;spacingLeft=3;spacingRight=3;rotatable=0;labelPosition=right;points=[];portConstraint=eastwest;strokeColor=inherit;" parent="YAAx3hCROQPIuZlO7VVM-14" vertex="1">
          <mxGeometry y="196" width="160" height="8" as="geometry" />
        </mxCell>
        <mxCell id="enPklc09AmODqLy-inbp-12" style="edgeStyle=orthogonalEdgeStyle;rounded=0;orthogonalLoop=1;jettySize=auto;html=1;entryX=1;entryY=0.5;entryDx=0;entryDy=0;" edge="1" parent="1" source="YAAx3hCROQPIuZlO7VVM-26" target="enPklc09AmODqLy-inbp-8">
          <mxGeometry relative="1" as="geometry" />
        </mxCell>
        <mxCell id="YAAx3hCROQPIuZlO7VVM-26" value="&lt;&lt;control&gt;&gt;&#xa;ControleVenda" style="swimlane;fontStyle=1;align=center;verticalAlign=top;childLayout=stackLayout;horizontal=1;startSize=40;horizontalStack=0;resizeParent=1;resizeParentMax=0;resizeLast=0;collapsible=1;marginBottom=0;" parent="1" vertex="1">
          <mxGeometry x="348" y="-756" width="340" height="220" as="geometry" />
        </mxCell>
        <mxCell id="YAAx3hCROQPIuZlO7VVM-32" value="" style="line;strokeWidth=1;fillColor=none;align=left;verticalAlign=middle;spacingTop=-1;spacingLeft=3;spacingRight=3;rotatable=0;labelPosition=right;points=[];portConstraint=eastwest;strokeColor=inherit;" parent="YAAx3hCROQPIuZlO7VVM-26" vertex="1">
          <mxGeometry y="40" width="340" height="24" as="geometry" />
        </mxCell>
        <mxCell id="enPklc09AmODqLy-inbp-1" value="+ SubmitPassagem(dest: String, pass: int, peso: double): void" style="text;strokeColor=none;fillColor=none;align=left;verticalAlign=top;spacingLeft=4;spacingRight=4;overflow=hidden;rotatable=0;points=[[0,0.5],[1,0.5]];portConstraint=eastwest;" vertex="1" parent="YAAx3hCROQPIuZlO7VVM-26">
          <mxGeometry y="64" width="340" height="26" as="geometry" />
        </mxCell>
        <mxCell id="YAAx3hCROQPIuZlO7VVM-33" value="+ CalcPassagem(): double" style="text;strokeColor=none;fillColor=none;align=left;verticalAlign=top;spacingLeft=4;spacingRight=4;overflow=hidden;rotatable=0;points=[[0,0.5],[1,0.5]];portConstraint=eastwest;" parent="YAAx3hCROQPIuZlO7VVM-26" vertex="1">
          <mxGeometry y="90" width="340" height="26" as="geometry" />
        </mxCell>
        <mxCell id="enPklc09AmODqLy-inbp-2" value="+ CalcBagagem(): double" style="text;strokeColor=none;fillColor=none;align=left;verticalAlign=top;spacingLeft=4;spacingRight=4;overflow=hidden;rotatable=0;points=[[0,0.5],[1,0.5]];portConstraint=eastwest;" vertex="1" parent="YAAx3hCROQPIuZlO7VVM-26">
          <mxGeometry y="116" width="340" height="26" as="geometry" />
        </mxCell>
        <mxCell id="enPklc09AmODqLy-inbp-4" value="+ CalcTotal(): double" style="text;strokeColor=none;fillColor=none;align=left;verticalAlign=top;spacingLeft=4;spacingRight=4;overflow=hidden;rotatable=0;points=[[0,0.5],[1,0.5]];portConstraint=eastwest;" vertex="1" parent="YAAx3hCROQPIuZlO7VVM-26">
          <mxGeometry y="142" width="340" height="26" as="geometry" />
        </mxCell>
        <mxCell id="enPklc09AmODqLy-inbp-5" value="+ ConfirmarPassagem(): void" style="text;strokeColor=none;fillColor=none;align=left;verticalAlign=top;spacingLeft=4;spacingRight=4;overflow=hidden;rotatable=0;points=[[0,0.5],[1,0.5]];portConstraint=eastwest;" vertex="1" parent="YAAx3hCROQPIuZlO7VVM-26">
          <mxGeometry y="168" width="340" height="26" as="geometry" />
        </mxCell>
        <mxCell id="enPklc09AmODqLy-inbp-6" value="+ CancelarPassagem(): void" style="text;strokeColor=none;fillColor=none;align=left;verticalAlign=top;spacingLeft=4;spacingRight=4;overflow=hidden;rotatable=0;points=[[0,0.5],[1,0.5]];portConstraint=eastwest;" vertex="1" parent="YAAx3hCROQPIuZlO7VVM-26">
          <mxGeometry y="194" width="340" height="26" as="geometry" />
        </mxCell>
      </root>
    </mxGraphModel>
  </diagram>
</mxfile>
